<?xml version="1.0" standalone="no"?>
<!DOCTYPE svg PUBLIC "-//W3C//DTD SVG 20010904//EN"
 "http://www.w3.org/TR/2001/REC-SVG-20010904/DTD/svg10.dtd">
<svg version="1.0" xmlns="http://www.w3.org/2000/svg"
 width="1400.000000pt" height="1400.000000pt" viewBox="0 0 1400.000000 1400.000000"
 preserveAspectRatio="xMidYMid meet">
<metadata>
Created by potrace 1.14, written by Peter Selinger 2001-2017
</metadata>
<g transform="translate(0.000000,1400.000000) scale(0.100000,-0.100000)"
fill="#000000" stroke="none">
<path d="M6065 9170 c-8 -14 40 -34 61 -26 15 6 14 9 -10 21 -33 18 -43 18
-51 5z"/>
<path d="M6155 9171 c-9 -16 8 -20 91 -20 91 -1 130 -4 162 -15 16 -5 22 -3
22 7 0 20 -26 29 -65 21 -19 -3 -35 -1 -39 5 -10 15 -59 14 -74 -1 -10 -10
-17 -10 -32 0 -23 14 -56 16 -65 3z"/>
<path d="M7401 9171 c-19 -5 -21 -8 -10 -17 23 -19 57 -26 75 -16 14 8 12 10
-10 16 -15 4 -24 11 -21 16 7 11 1 11 -34 1z"/>
<path d="M7482 9168 c5 -15 54 -31 74 -24 14 5 14 8 0 21 -18 18 -80 21 -74 3z"/>
<path d="M7590 9171 c0 -11 25 -21 56 -21 17 0 22 4 18 15 -7 16 -74 22 -74 6z"/>
<path d="M7712 9173 c-23 -9 -1 -23 36 -23 34 0 35 1 16 15 -20 15 -31 17 -52
8z"/>
<path d="M5973 9148 c2 -7 14 -13 27 -13 13 0 25 6 28 13 2 8 -7 12 -28 12
-21 0 -30 -4 -27 -12z"/>
<path d="M7302 9143 c2 -11 14 -19 31 -21 29 -4 35 6 15 26 -19 19 -50 15 -46
-5z"/>
<path d="M7817 9154 c-11 -11 3 -24 24 -24 12 0 19 5 17 13 -5 14 -31 21 -41
11z"/>
<path d="M6480 9136 c0 -11 9 -16 26 -16 31 0 28 23 -4 28 -15 2 -22 -2 -22
-12z"/>
<path d="M7910 9130 c-12 -7 -12 -10 2 -15 9 -4 25 -5 35 -3 17 4 16 5 -3 15
-12 7 -26 8 -34 3z"/>
<path d="M5894 9115 c25 -19 36 -19 36 0 0 10 -10 15 -27 15 -27 -1 -27 -1 -9
-15z"/>
<path d="M6579 9120 c-11 -7 -10 -10 3 -15 9 -4 24 -5 33 -3 13 3 13 5 -3 15
-11 6 -24 8 -33 3z"/>
<path d="M7210 9115 c0 -10 10 -15 30 -15 32 0 40 14 14 24 -27 10 -44 7 -44
-9z"/>
<path d="M5819 9086 c6 -8 23 -16 37 -19 24 -4 24 -3 8 14 -21 23 -63 27 -45
5z"/>
<path d="M6666 9093 c-10 -11 5 -23 29 -23 13 0 30 -7 39 -15 15 -16 36 -20
36 -7 -1 10 -97 52 -104 45z"/>
<path d="M7124 9085 c11 -8 33 -14 49 -13 26 2 27 4 11 15 -10 7 -32 13 -48
13 -29 -1 -30 -1 -12 -15z"/>
<path d="M7990 9085 c7 -8 17 -15 22 -15 6 0 5 7 -2 15 -7 8 -17 15 -22 15 -6
0 -5 -7 2 -15z"/>
<path d="M5793 9053 c-27 -5 -30 -18 -7 -27 21 -8 21 -8 27 14 3 11 4 19 4 19
-1 -1 -12 -4 -24 -6z"/>
<path d="M6105 9046 c-197 -40 -299 -188 -217 -317 35 -55 118 -130 174 -158
l43 -22 -45 6 c-25 4 -76 11 -115 18 -38 6 -158 11 -265 11 -144 0 -185 3
-157 10 20 5 37 15 37 22 0 7 6 15 13 17 6 3 0 6 -15 6 -15 1 -30 6 -33 11 -3
6 -34 10 -67 10 -50 0 -67 -5 -95 -26 -18 -14 -33 -29 -33 -34 0 -5 21 -16 47
-23 l47 -14 -52 -6 c-54 -6 -202 -70 -250 -107 -40 -31 -72 -90 -72 -131 0
-24 10 -49 29 -76 79 -110 225 -151 486 -137 193 10 187 23 -12 24 -164 0
-245 8 -305 32 -16 6 -28 15 -28 20 0 5 -4 7 -10 3 -5 -3 -30 14 -55 38 -39
38 -45 49 -45 86 0 23 7 55 15 71 91 177 681 240 1046 113 88 -31 206 -94 247
-133 26 -25 27 -27 8 -27 -8 0 -14 5 -13 11 2 10 -3 12 -80 20 -23 2 -52 7
-65 11 -21 6 -22 5 -5 -8 9 -8 35 -17 57 -21 22 -3 68 -21 101 -38 97 -51 124
-134 77 -228 -29 -56 -103 -97 -203 -111 -98 -14 -95 -22 5 -14 99 8 148 21
172 47 9 10 26 18 38 18 14 0 20 5 17 13 -3 7 3 31 14 53 10 21 18 51 19 65 0
36 -24 101 -54 146 -15 21 -26 41 -26 45 0 6 54 -19 238 -111 30 -14 74 -43
98 -65 60 -52 70 -37 12 17 -52 48 -239 152 -305 170 -26 7 -60 26 -81 47 -20
19 -41 36 -47 36 -29 5 -55 18 -55 29 0 7 -15 20 -34 29 -19 9 -36 20 -38 24
-2 4 -21 16 -42 27 -22 11 -79 58 -127 106 -101 99 -118 136 -98 214 23 93
102 125 303 125 72 0 160 -5 196 -10 86 -13 216 -60 325 -116 49 -25 83 -38
76 -30 -8 9 -18 16 -23 16 -5 0 -28 15 -51 34 -51 41 -103 68 -179 91 -31 10
-55 22 -52 26 2 4 -1 11 -7 15 -8 5 -9 3 -4 -6 6 -10 1 -11 -21 -6 -16 3 -108
9 -204 12 -96 4 -182 11 -190 16 -12 7 -11 8 5 7 11 -1 52 0 90 1 49 1 64 4
50 10 -29 12 -140 10 -210 -4z m32 -502 c-3 -3 -12 -4 -19 -1 -8 3 -5 6 6 6
11 1 17 -2 13 -5z"/>
<path d="M7060 9054 c0 -13 34 -32 47 -27 10 4 9 9 -4 19 -19 14 -43 18 -43 8z"/>
<path d="M8041 9040 c14 -31 19 -36 19 -24 0 6 -7 19 -16 30 -14 18 -14 18 -3
-6z"/>
<path d="M7315 9034 c-27 -8 -73 -21 -101 -29 -53 -16 -177 -101 -188 -130
-13 -36 -4 -36 34 -2 88 80 185 107 405 114 186 6 254 -4 314 -47 96 -70 92
-159 -11 -256 -58 -55 -154 -127 -203 -153 -46 -24 -56 -31 -140 -86 -33 -22
-98 -60 -144 -85 -134 -72 -233 -142 -262 -185 -28 -41 -44 -89 -26 -78 10 6
9 1 -9 -55 -9 -29 39 -77 109 -112 69 -33 150 -49 161 -31 5 7 -1 11 -13 11
-35 0 -99 31 -115 55 -21 32 -20 58 3 105 11 23 15 42 10 47 -18 18 25 42 79
44 31 2 52 7 52 14 0 9 -21 9 -88 0 -92 -13 -122 -24 -159 -58 -19 -17 -23
-18 -23 -5 0 26 104 112 187 154 43 21 105 57 138 78 70 47 104 57 58 18 -40
-35 -77 -95 -91 -151 -9 -37 -8 -52 10 -100 11 -31 32 -68 48 -82 53 -50 188
-87 268 -72 48 8 20 21 -32 16 -60 -7 -182 31 -217 68 -50 54 -51 126 -4 225
41 85 82 123 200 183 145 74 335 111 565 111 152 0 266 -13 351 -41 167 -54
259 -124 259 -198 0 -59 -34 -98 -131 -151 -46 -24 -77 -32 -160 -41 -150 -15
-325 4 -404 45 -35 18 -65 22 -49 6 39 -39 229 -79 375 -80 123 0 188 12 267
51 77 38 129 89 143 143 10 36 8 46 -12 84 -57 103 -253 181 -512 203 -138 11
-231 8 -382 -17 -49 -7 -98 -14 -108 -14 -17 0 -17 2 -3 15 8 9 32 23 52 31
40 17 126 100 149 144 46 89 -5 208 -110 256 -96 44 -158 54 -330 53 -104 -1
-177 -6 -210 -15z m270 -4 c6 -5 33 -10 60 -13 28 -2 -16 -4 -96 -5 -80 -1
-168 -4 -195 -7 -36 -3 -42 -2 -24 4 14 5 43 10 65 11 32 1 36 3 20 10 -13 5
12 8 70 8 49 0 95 -3 100 -8z m32 4 c-3 -3 -12 -4 -19 -1 -8 3 -5 6 6 6 11 1
17 -2 13 -5z m-108 -587 c-2 -1 -13 -9 -24 -17 -19 -14 -19 -14 -6 3 7 9 18
17 24 17 6 0 8 -1 6 -3z"/>
<path d="M6988 9018 c13 -6 21 -17 18 -25 -4 -11 -1 -11 15 -2 25 13 15 25
-26 34 -28 5 -29 5 -7 -7z"/>
<path d="M6816 9005 c4 -8 12 -15 19 -15 7 0 30 -22 50 -50 39 -53 45 -58 45
-36 0 14 -98 116 -111 116 -5 0 -6 -7 -3 -15z"/>
<path d="M5762 8993 c2 -10 11 -19 21 -21 23 -5 21 10 -4 26 -18 12 -20 11
-17 -5z"/>
<path d="M6956 8955 c4 -8 7 -15 9 -15 1 0 8 7 15 15 10 13 9 15 -8 15 -15 0
-20 -5 -16 -15z"/>
<path d="M6494 8866 c-34 -15 -77 -66 -89 -104 -4 -13 -4 -40 0 -59 10 -56
120 -163 167 -163 7 0 -5 11 -28 25 -38 23 -70 62 -103 127 -12 22 -12 35 -2
67 25 84 98 122 203 106 31 -4 39 -3 28 4 -21 15 -139 13 -176 -3z"/>
<path d="M7260 8869 c74 -23 113 -44 137 -76 21 -27 24 -39 18 -70 -4 -21 -13
-50 -21 -65 -14 -26 -27 -41 -93 -97 -35 -31 -16 -25 34 9 89 61 129 147 101
213 -12 30 -26 43 -68 62 -29 13 -73 26 -98 29 -44 5 -44 5 -10 -5z"/>
<path d="M5130 8860 c-17 -10 -7 -35 22 -54 39 -25 196 -66 332 -86 72 -11
132 -17 134 -15 8 7 -64 35 -90 35 -38 0 -202 31 -211 39 -5 5 4 7 20 5 24 -4
25 -3 8 5 -18 9 -17 10 10 11 23 2 9 9 -55 30 -99 32 -152 41 -170 30z"/>
<path d="M6700 8863 c8 -2 29 -11 47 -19 17 -8 37 -14 45 -14 7 0 -7 9 -31 20
-24 11 -51 20 -60 19 -13 0 -13 -1 -1 -6z"/>
<path d="M8555 8845 c-73 -16 -169 -52 -253 -94 -62 -31 -83 -56 -39 -47 12 3
69 12 127 21 182 28 370 104 313 126 -27 11 -81 9 -148 -6z m20 -34 c18 -7 15
-10 -20 -25 -43 -18 -109 -35 -138 -36 -15 0 -16 2 -5 14 7 7 19 11 27 8 9 -3
12 -1 8 5 -4 7 10 17 35 26 49 18 65 19 93 8z"/>
<path d="M5654 8806 c-15 -29 -15 -38 -4 -51 38 -46 195 -105 229 -85 14 8 14
9 -2 10 -38 0 -117 42 -117 61 0 11 5 19 12 19 6 0 3 8 -7 20 -10 11 -21 18
-25 15 -3 -2 -6 6 -6 18 1 18 -5 23 -31 25 -29 3 -35 -1 -49 -32z"/>
<path d="M8061 8808 c-12 -12 -24 -36 -27 -54 -3 -18 -15 -40 -25 -50 -25 -22
-26 -49 -1 -39 9 4 29 10 45 13 15 2 30 9 34 15 4 6 0 8 -9 5 -12 -5 -14 2 -7
45 8 49 20 67 48 67 9 0 11 -7 7 -25 -4 -14 -2 -25 3 -25 5 0 7 -10 3 -22 l-5
-22 30 22 c35 25 41 67 12 82 -32 18 -87 12 -108 -12z"/>
<path d="M7035 8806 c-35 -15 -60 -42 -69 -73 -10 -30 16 -31 44 -1 15 16 32
22 69 22 63 1 105 -27 109 -74 4 -40 -22 -70 -98 -111 -72 -39 -104 -68 -129
-117 -22 -44 -26 -78 -12 -101 12 -19 31 -5 31 24 0 12 7 26 16 29 9 4 14 9
11 13 -13 12 35 56 94 85 70 34 74 50 5 19 -25 -11 -46 -17 -45 -13 1 20 134
100 146 88 3 -3 0 -12 -7 -21 -7 -8 -9 -15 -4 -15 5 0 2 -5 -6 -10 -9 -6 -10
-10 -3 -10 54 -1 143 84 143 136 0 16 -6 38 -12 47 -22 28 -81 67 -102 67 -21
-1 -21 -1 -1 -16 20 -16 20 -16 -2 -9 -15 4 -23 2 -23 -6 0 -8 -6 -6 -18 4
-10 10 -26 17 -35 17 -21 0 -31 17 -15 24 7 3 3 3 -9 1 -12 -3 -24 -1 -28 5
-8 13 -13 12 -50 -4z"/>
<path d="M6593 8791 c-25 -12 -48 -32 -57 -50 -22 -42 -20 -103 4 -131 11 -12
17 -27 14 -32 -3 -4 -2 -7 3 -6 4 2 33 -9 63 -24 30 -15 82 -37 114 -49 57
-22 119 -72 157 -130 10 -13 20 -21 24 -17 7 7 -26 83 -47 108 -20 24 -70 57
-98 64 -54 16 -92 38 -102 62 -6 13 -14 24 -18 24 -13 0 -28 46 -23 71 7 40
37 70 77 79 31 7 50 3 109 -21 74 -30 89 -30 67 -4 -28 33 -83 52 -142 49 -57
-2 -80 10 -35 19 12 2 2 5 -23 5 -25 1 -63 -7 -87 -17z m77 -15 c0 -2 -13 -6
-29 -8 -17 -2 -28 -1 -25 4 5 8 54 12 54 4z"/>
<path d="M6820 8806 c0 -2 7 -6 15 -10 8 -3 15 -1 15 4 0 6 -7 10 -15 10 -8 0
-15 -2 -15 -4z"/>
<path d="M5657 8643 c-45 -3 -65 -8 -61 -15 4 -5 0 -15 -7 -20 -10 -7 -9 -8 6
-3 18 6 127 24 148 25 5 0 5 5 2 10 -3 6 -9 9 -13 8 -4 -1 -38 -3 -75 -5z"/>
<path d="M8115 8635 l-30 -13 39 -1 c35 -1 102 -11 281 -41 95 -16 132 30 45
56 -54 16 -70 17 -70 4 0 -5 8 -10 18 -10 9 0 24 -5 32 -10 22 -15 -93 -4
-165 14 -72 19 -110 20 -150 1z m375 -25 c0 -5 -4 -10 -10 -10 -5 0 -10 5 -10
10 0 6 5 10 10 10 6 0 10 -4 10 -10z"/>
<path d="M4940 8511 c-60 -32 -83 -65 -88 -125 -2 -29 1 -62 7 -72 9 -16 10
-14 11 16 0 63 19 108 56 137 68 53 78 63 63 63 -8 -1 -30 -9 -49 -19z"/>
<path d="M8880 8495 c14 -7 43 -36 65 -64 21 -28 41 -49 43 -46 2 2 -4 20 -14
40 -17 37 -77 85 -104 85 -9 -1 -5 -6 10 -15z"/>
<path d="M7080 8420 c-9 -6 -10 -10 -3 -10 6 0 15 5 18 10 8 12 4 12 -15 0z"/>
<path d="M5959 8401 c-35 -5 -58 -17 -96 -51 -47 -42 -49 -46 -32 -58 11 -7
19 -24 19 -37 0 -16 10 -28 38 -42 20 -11 52 -28 71 -38 18 -10 54 -19 80 -21
39 -3 42 -2 16 5 -61 18 -160 76 -175 103 -13 25 -13 29 6 54 47 63 64 69 204
69 71 0 123 3 117 6 -19 11 -198 18 -248 10z"/>
<path d="M7815 8390 c109 -9 165 -41 165 -93 0 -25 -47 -75 -95 -100 -37 -20
-14 -22 28 -3 18 8 38 16 45 18 7 2 23 21 37 44 24 40 24 41 5 71 -29 49 -92
73 -186 72 l-79 -2 80 -7z"/>
<path d="M3676 8379 c-84 -12 -84 -23 -1 -15 39 3 111 7 160 7 85 2 87 2 35 9
-70 10 -120 10 -194 -1z"/>
<path d="M9816 8354 c-163 -32 -301 -103 -326 -168 -18 -48 -11 -49 26 -4 53
63 104 91 260 141 146 47 154 54 40 31z"/>
<path d="M10198 8363 c7 -3 16 -2 19 1 4 3 -2 6 -13 5 -11 0 -14 -3 -6 -6z"/>
<path d="M3538 8343 c7 -3 16 -2 19 1 4 3 -2 6 -13 5 -11 0 -14 -3 -6 -6z"/>
<path d="M5495 8343 c-31 -8 -65 -44 -65 -70 0 -34 38 -46 101 -31 55 13 79
39 58 64 -8 10 -8 14 0 14 6 0 11 7 11 15 0 11 -11 15 -42 14 -24 -1 -52 -3
-63 -6z"/>
<path d="M8111 8338 c-42 -12 -30 -25 29 -31 25 -2 74 -17 110 -32 81 -35 154
-40 157 -10 3 25 -30 50 -78 59 -27 5 -36 3 -36 -8 0 -8 7 -12 16 -10 9 3 6
-1 -6 -7 -20 -10 -27 -8 -55 20 -34 34 -64 38 -137 19z"/>
<path d="M10290 8338 c45 -20 94 -37 97 -34 5 4 -97 46 -111 45 -6 0 0 -5 14
-11z"/>
<path d="M3454 8312 c-81 -43 -134 -95 -134 -132 0 -8 11 3 24 24 16 27 49 55
102 88 85 52 90 64 8 20z"/>
<path d="M4204 8275 c60 -30 111 -55 114 -55 2 0 -1 6 -8 14 -17 22 -140 83
-180 90 -23 4 1 -12 74 -49z"/>
<path d="M5655 8321 c-3 -5 0 -13 6 -16 15 -10 101 4 94 16 -8 12 -92 12 -100
0z"/>
<path d="M3740 8289 c-47 -3 -108 -13 -137 -21 -108 -32 -235 -132 -268 -210
-31 -75 -10 -160 55 -225 18 -18 28 -33 24 -33 -5 0 14 -12 41 -26 28 -14 40
-24 28 -21 -14 3 -23 0 -23 -6 0 -7 -7 -3 -15 7 -8 11 -15 15 -15 9 0 -6 -11
-8 -25 -5 -14 2 -22 9 -18 15 3 6 1 7 -6 3 -14 -9 -153 23 -146 33 2 4 -4 7
-13 7 -9 0 -30 2 -47 3 -26 2 -28 3 -10 11 l20 9 -20 1 c-56 4 -87 9 -163 30
-46 13 -79 26 -73 30 7 3 -3 6 -21 6 -18 0 -87 14 -153 32 -201 53 -457 78
-589 58 -44 -7 -57 -6 -52 2 4 7 31 12 59 12 34 1 47 4 37 9 -19 11 -138 -4
-205 -26 -94 -30 -180 -127 -175 -196 3 -38 1 -46 -17 -46 -26 0 -120 -18
-157 -30 -69 -22 -212 -34 -416 -34 -226 0 -312 10 -388 44 -39 18 -43 23 -40
52 3 28 9 34 53 50 28 10 68 23 90 28 36 8 34 8 -18 4 -81 -5 -151 -41 -155
-78 -5 -40 20 -63 92 -86 94 -31 177 -41 351 -41 175 0 347 16 527 50 l116 22
44 -26 c87 -51 224 -70 294 -41 39 16 52 28 78 68 22 32 11 52 -41 74 -42 17
-181 17 -258 -1 -33 -8 -63 -12 -67 -10 -13 8 -9 34 10 66 35 60 168 105 337
115 134 8 191 -6 133 -32 -35 -16 -64 -63 -52 -83 14 -23 112 -72 143 -71 21
0 17 3 -16 13 -54 17 -103 53 -103 75 0 10 15 33 32 51 l33 32 80 -6 c106 -9
199 -32 608 -152 192 -57 256 -75 342 -95 132 -33 414 -87 505 -99 224 -27
552 2 775 69 l100 30 -75 -6 c-41 -3 -85 -9 -97 -14 -33 -12 -140 -24 -183
-20 -22 3 88 27 147 33 12 1 20 5 17 7 -3 3 23 13 58 22 79 21 198 65 212 79
5 5 18 10 27 10 10 0 30 7 46 15 70 36 154 67 168 61 9 -3 13 -2 10 4 -3 5 3
14 14 20 16 8 22 7 30 -9 6 -10 7 -21 4 -25 -3 -3 -1 -6 5 -6 7 0 12 6 12 13
0 9 2 9 9 -1 7 -11 15 -10 47 3 70 30 226 75 298 86 85 14 238 6 321 -16 83
-22 229 -95 297 -149 66 -53 98 -111 98 -180 0 -38 -6 -52 -35 -84 -41 -46
-130 -95 -203 -112 -57 -13 -162 -16 -215 -5 -139 29 -166 51 -145 119 10 30
17 37 47 42 20 3 49 10 65 15 16 5 40 9 52 9 27 0 32 15 8 24 -31 12 -74 7
-74 -9 0 -15 -8 -17 -67 -19 -28 -1 -30 1 -17 15 15 16 19 39 7 39 -4 0 -26
-9 -50 -21 -72 -35 -68 -96 12 -175 33 -31 59 -45 120 -63 69 -21 93 -23 204
-19 69 3 135 10 146 16 11 6 45 22 75 35 63 27 152 103 175 149 74 150 -133
343 -485 450 -63 19 -97 23 -215 23 -126 -1 -155 -4 -291 -37 -117 -28 -174
-48 -255 -88 -57 -29 -131 -63 -164 -75 -33 -13 -94 -39 -135 -58 -85 -40
-177 -70 -265 -86 -33 -6 -96 -18 -140 -27 -45 -9 -155 -18 -250 -21 -144 -5
-189 -2 -295 16 -163 28 -278 59 -302 83 -10 10 -20 18 -23 18 -12 0 -113 71
-138 98 -49 51 -47 128 5 204 23 33 116 97 184 125 108 46 273 55 400 22 183
-48 218 -127 105 -239 -92 -91 -302 -121 -393 -55 -18 14 -43 32 -56 41 -12 9
-25 14 -29 11 -10 -10 17 -36 66 -65 41 -24 59 -28 164 -32 l119 -5 -22 -28
c-14 -18 -23 -43 -24 -68 0 -33 5 -44 29 -63 35 -28 43 -26 21 6 -9 12 -16 38
-16 56 0 43 44 86 109 107 l46 15 -45 -6 -45 -5 45 26 c62 36 127 109 135 151
11 62 -23 125 -83 150 -118 49 -258 67 -432 53z m-1695 -329 c-11 -5 -27 -9
-35 -9 -13 -1 -13 0 0 9 8 5 24 9 35 9 l20 0 -20 -9z m3255 -34 c0 -2 -9 -6
-20 -9 -11 -3 -18 -1 -14 4 5 9 34 13 34 5z m-3381 -54 c-24 -40 -50 -53 -41
-19 4 14 7 16 13 5 7 -11 9 -10 9 1 0 13 28 51 37 51 2 0 -6 -17 -18 -38z
m304 -91 c33 -13 34 -27 4 -64 -15 -20 -34 -30 -63 -34 -47 -6 -164 21 -180
42 -6 8 -14 12 -18 8 -4 -4 -4 0 0 10 3 9 2 23 -4 30 -14 16 220 24 261 8z
m1284 -47 c-3 -3 -12 -4 -19 -1 -8 3 -5 6 6 6 11 1 17 -2 13 -5z m43 -4 c8 -5
11 -10 5 -10 -5 0 -17 5 -25 10 -8 5 -10 10 -5 10 6 0 17 -5 25 -10z"/>
<path d="M9754 8275 c-98 -31 -160 -79 -170 -132 -16 -86 29 -151 146 -209 72
-35 79 -37 180 -37 103 1 183 14 195 33 3 6 -6 5 -22 -2 -16 -6 -77 -11 -139
-11 -107 1 -115 2 -173 33 -76 41 -139 104 -147 147 -13 72 61 133 186 154 37
6 114 9 177 5 249 -12 433 -123 433 -262 0 -78 -48 -134 -172 -199 -194 -102
-452 -140 -770 -114 -122 10 -139 9 -153 -5 -9 -9 -21 -16 -28 -16 -6 0 -2 7
9 16 19 15 19 16 -1 9 -44 -16 -55 -17 -72 -9 -10 4 -22 8 -28 9 -68 8 -107
19 -112 31 -4 10 -13 14 -29 10 -13 -4 -28 -1 -36 7 -6 7 -22 11 -35 9 -17 -3
-23 0 -23 13 0 13 -6 16 -21 12 -28 -8 -69 12 -62 29 3 8 -1 14 -8 14 -12 0
-12 2 0 9 10 7 8 10 -10 16 -25 7 -46 17 -192 84 -49 23 -91 41 -94 41 -3 0
-19 6 -36 14 -70 31 -238 76 -308 82 -41 3 -86 7 -100 9 -85 10 -319 -36 -416
-81 -64 -30 -183 -115 -225 -160 -78 -85 -95 -191 -42 -266 39 -56 119 -111
203 -140 93 -32 265 -33 367 -1 76 24 164 86 164 115 0 9 5 20 10 23 18 11 11
46 -12 66 -26 21 -60 25 -53 7 6 -15 -51 -22 -60 -9 -3 5 5 7 17 5 21 -4 21
-3 -2 6 -14 6 -33 9 -43 6 -11 -3 -17 0 -14 7 2 7 15 11 28 10 23 -2 23 -2 3
8 -28 14 -109 -2 -109 -21 0 -12 34 -27 148 -66 21 -7 40 -49 32 -73 -22 -69
-287 -101 -419 -50 -75 28 -140 77 -170 127 -23 38 -27 53 -21 88 13 88 145
205 301 266 265 103 488 74 899 -117 295 -136 549 -199 865 -211 188 -8 287 2
565 57 116 22 235 45 265 50 30 6 102 25 160 44 58 19 132 41 165 49 33 7 73
19 88 25 34 13 57 14 57 2 0 -5 -18 -12 -40 -16 -69 -12 -53 -23 44 -30 100
-8 145 -2 189 23 30 18 34 34 13 51 -14 11 -99 9 -165 -5 -22 -5 -23 -4 -10
12 8 10 9 15 2 11 -6 -4 -18 -4 -27 -1 -13 5 -13 8 -1 20 15 16 29 19 21 5 -4
-5 18 -3 46 5 29 7 71 14 93 14 22 0 67 7 100 15 33 9 110 18 172 22 62 3 110
10 107 15 -12 19 240 -1 327 -26 107 -32 159 -81 159 -149 0 -35 -2 -38 -12
-25 -20 26 -83 39 -220 45 -108 5 -131 3 -153 -11 -27 -18 -33 -53 -15 -87 28
-52 168 -86 269 -65 49 10 70 21 101 51 l39 38 103 -22 c217 -47 266 -53 464
-58 215 -6 401 7 476 32 25 9 59 31 77 49 29 30 31 36 19 55 -16 27 -103 71
-137 71 -18 -1 -10 -6 27 -19 108 -37 119 -80 32 -123 -67 -34 -181 -48 -390
-48 -174 0 -291 12 -465 46 -71 13 -146 26 -167 27 -41 2 -41 2 -28 32 8 18 9
19 9 1 1 -12 6 -16 17 -12 9 3 18 6 20 6 11 0 2 79 -12 96 -15 19 -16 19 -9
-1 3 -11 2 -16 -2 -11 -4 4 -8 17 -8 29 0 12 -10 26 -22 33 -13 6 -31 18 -41
27 -10 10 -23 17 -28 17 -5 0 -2 -4 6 -10 8 -5 12 -11 10 -13 -3 -2 -18 5 -35
15 -16 11 -22 17 -12 14 11 -4 16 -2 11 5 -3 6 -17 8 -31 4 -18 -4 -23 -2 -17
6 5 9 2 10 -12 4 -10 -4 -26 -8 -34 -7 -240 13 -311 13 -390 -1 -47 -9 -125
-21 -175 -27 -49 -7 -95 -17 -102 -22 -7 -6 -36 -8 -65 -6 -29 3 -78 1 -108
-4 -61 -10 -266 -73 -375 -114 -81 -30 -132 -44 -139 -36 -3 2 14 20 38 38 85
65 115 174 70 256 -25 44 -64 92 -64 79 0 -6 -9 -2 -20 9 -38 38 -151 85 -280
115 -81 19 -326 19 -386 0z m1133 -411 c-3 -3 -12 -4 -19 -1 -8 3 -5 6 6 6 11
1 17 -2 13 -5z m129 -29 c4 -8 14 -15 23 -16 28 -2 -32 -17 -71 -18 -44 -1
-56 12 -25 27 51 25 66 26 73 7z m961 -17 c-3 -7 -5 -2 -5 12 0 14 2 19 5 13
2 -7 2 -19 0 -25z m-3127 12 c8 -5 12 -12 9 -15 -8 -8 -39 5 -39 16 0 11 11
11 30 -1z m-50 -10 c8 -5 11 -10 5 -10 -5 0 -17 5 -25 10 -8 5 -10 10 -5 10 6
0 17 -5 25 -10z m1963 3 c-7 -2 -19 -2 -25 0 -7 3 -2 5 12 5 14 0 19 -2 13 -5z
m-1896 -29 c-3 -3 -12 -4 -19 -1 -8 3 -5 6 6 6 11 1 17 -2 13 -5z m2952 -13
c46 -9 48 -23 9 -60 -40 -37 -101 -49 -175 -33 -86 18 -127 64 -90 101 12 12
178 7 256 -8z m36 -91 c-3 -5 -11 -10 -16 -10 -6 0 -7 5 -4 10 3 6 11 10 16
10 6 0 7 -4 4 -10z"/>
<path d="M4470 8232 c0 -5 30 -38 68 -74 144 -139 300 -208 469 -208 57 0 147
30 133 44 -3 2 -35 7 -71 10 -37 4 -82 11 -100 16 -48 14 -62 13 -55 -5 13
-36 -105 -8 -141 33 -26 28 -29 37 -10 26 17 -10 -1 8 -37 34 -35 27 -34 27
39 2 32 -11 125 -34 207 -50 209 -42 231 -40 166 20 -35 32 -99 54 -187 66
-48 6 -53 5 -40 -8 8 -8 28 -20 44 -26 l30 -10 -35 -1 c-50 0 -144 24 -204 52
-28 14 -78 33 -111 42 -33 10 -80 24 -104 31 -52 16 -61 17 -61 6z"/>
<path d="M9315 8233 c-38 -9 -220 -65 -225 -70 -2 -2 1 -7 7 -11 8 -5 9 -13 3
-22 -7 -11 -33 -16 -92 -18 -76 -3 -81 -2 -64 13 11 8 28 15 37 15 10 0 21 5
25 12 11 17 -175 3 -223 -17 -54 -23 -103 -63 -103 -85 0 -16 7 -18 63 -14 34
2 73 7 87 9 69 15 98 16 104 6 5 -7 -6 -12 -31 -13 -78 -3 -88 -4 -110 -16
-12 -7 -35 -12 -52 -12 -42 0 -46 -15 -8 -31 21 -9 73 -14 154 -14 77 0 119
-3 113 -9 -6 -6 -10 -18 -10 -28 0 -16 10 -18 73 -19 51 -1 65 -3 47 -9 -15
-5 26 -7 100 -6 100 1 124 -2 122 -12 -4 -20 48 -7 130 31 70 33 88 53 41 43
-16 -3 -74 -8 -129 -12 -90 -6 -107 -4 -145 14 -56 26 -160 45 -208 38 -20 -4
-43 -2 -51 4 -13 8 -13 10 1 10 29 0 31 29 3 36 -19 5 -22 9 -13 15 8 5 17 3
22 -4 7 -9 10 -9 14 1 7 17 88 15 142 -4 l44 -15 42 43 c23 24 62 61 86 84 24
22 50 48 58 57 12 15 11 17 -10 16 -13 -1 -33 -3 -44 -6z m-375 -233 c0 -5 -2
-10 -4 -10 -3 0 -8 5 -11 10 -3 6 -1 10 4 10 6 0 11 -4 11 -10z"/>
<path d="M6580 8175 c0 -8 10 -20 22 -26 40 -22 118 -102 118 -121 0 -48 -31
-76 -130 -116 -23 -9 -24 -10 -6 -18 11 -4 42 -2 70 5 112 26 105 23 157 75
43 42 46 70 15 111 -23 29 -32 35 -61 32 -19 -1 -35 -6 -35 -11 0 -6 -15 4
-32 21 -65 60 -118 82 -118 48z m181 -102 c13 -16 12 -17 -3 -4 -10 7 -18 15
-18 17 0 8 8 3 21 -13z m9 -103 c0 -5 -4 -10 -10 -10 -5 0 -9 -6 -7 -12 1 -7
-8 -14 -20 -16 l-23 -3 23 25 c23 27 37 33 37 16z"/>
<path d="M2582 8139 c-6 -23 -7 -51 -2 -63 10 -26 63 -66 86 -66 15 0 13 5 -9
28 -17 18 -25 34 -21 48 5 18 9 16 48 -23 25 -24 53 -43 65 -43 12 0 32 -9 44
-21 41 -38 151 -9 113 30 -9 8 -22 10 -36 6 -17 -5 -19 -9 -9 -16 11 -6 10 -9
-5 -15 -11 -4 -21 -2 -27 7 -13 20 -6 32 22 40 14 4 17 7 7 8 -11 1 -15 7 -11
22 5 18 3 20 -13 11 -11 -6 -28 -20 -38 -31 -23 -25 -39 -27 -56 -6 -7 9 -34
28 -61 42 -35 20 -49 34 -51 53 -5 43 -34 36 -46 -11z"/>
<path d="M11198 8150 c-18 -16 -49 -40 -68 -52 -22 -15 -36 -33 -38 -49 -2
-20 3 -27 33 -38 33 -11 38 -10 80 16 62 40 83 111 28 97 -14 -4 -19 -11 -16
-25 7 -26 -13 -48 -37 -42 -11 3 -20 0 -20 -6 0 -6 -4 -11 -8 -11 -5 0 -9 7
-9 15 0 8 3 13 5 10 3 -3 20 11 38 30 17 19 37 35 43 35 6 0 11 5 11 11 0 5 5
7 12 3 8 -5 9 -2 5 10 -4 10 -7 20 -7 22 0 12 -23 1 -52 -26z"/>
<path d="M2314 8128 c7 -37 40 -76 75 -89 32 -13 40 -2 14 16 -12 9 -21 24
-20 35 1 18 3 19 26 3 28 -18 91 -35 91 -23 0 7 -57 34 -99 46 -14 3 -34 15
-45 25 -32 30 -50 25 -42 -13z"/>
<path d="M11460 8145 c-14 -8 -32 -14 -41 -15 -17 0 -59 -40 -59 -56 0 -16 39
-44 60 -44 11 0 19 4 18 10 -2 5 12 17 31 27 31 17 71 67 61 76 -15 14 -48 14
-70 2z m44 -26 c-4 -7 -62 -39 -71 -39 -9 0 -1 39 10 43 20 8 67 5 61 -4z"/>
<path d="M10951 8074 c-33 -28 -42 -73 -18 -93 22 -18 137 -1 137 20 0 6 -5 7
-11 4 -6 -4 -10 -1 -9 6 4 25 -12 59 -27 59 -9 0 -13 6 -9 15 9 25 -29 18 -63
-11z m65 -49 c-6 -18 -36 -20 -36 -4 0 16 34 40 38 28 2 -5 1 -16 -2 -24z"/>
<path d="M3840 8071 c0 -6 11 -18 25 -27 14 -9 31 -28 38 -42 6 -14 26 -34 43
-44 30 -18 32 -18 58 3 31 25 34 54 5 69 -19 11 -20 9 -17 -17 4 -40 -24 -37
-38 5 -5 17 -14 36 -20 41 -15 14 -94 24 -94 12z"/>
<path d="M9820 8048 c-43 -47 -11 -98 63 -98 32 0 37 2 28 14 -6 7 -12 34 -13
60 -2 43 -4 46 -30 46 -15 0 -36 -10 -48 -22z"/>
<path d="M9975 8060 c-3 -5 1 -10 9 -10 8 0 18 5 21 10 3 6 -1 10 -9 10 -8 0
-18 -4 -21 -10z"/>
<path d="M4800 8040 c0 -5 5 -10 11 -10 5 0 7 5 4 10 -3 6 -8 10 -11 10 -2 0
-4 -4 -4 -10z"/>
<path d="M1610 8021 c17 -11 106 -25 137 -22 12 1 34 -5 50 -14 27 -15 27 -15
-32 -9 -33 3 -98 13 -145 21 -93 17 -293 14 -312 -5 -8 -8 25 -11 108 -11 65
0 160 -4 209 -10 50 -6 120 -11 156 -11 69 0 136 17 122 31 -4 4 -48 15 -98
23 -100 18 -219 22 -195 7z"/>
<path d="M2435 8020 c-4 -6 3 -10 14 -10 25 0 27 6 6 13 -8 4 -17 2 -20 -3z"/>
<path d="M11990 8017 c-60 -16 -65 -42 -12 -58 31 -9 62 -9 138 0 55 7 163 15
242 18 79 3 139 10 135 14 -11 11 -155 14 -230 4 -34 -4 -70 -4 -80 0 -10 5
-25 7 -33 6 -10 -2 -12 1 -5 8 6 5 33 12 60 14 28 2 1 4 -60 4 -60 1 -130 -4
-155 -10z m137 -13 c-3 -3 -12 -4 -19 -1 -8 3 -5 6 6 6 11 1 17 -2 13 -5z"/>
<path d="M12268 8013 c6 -2 18 -2 25 0 6 3 1 5 -13 5 -14 0 -19 -2 -12 -5z"/>
<path d="M11698 8003 c7 -3 16 -2 19 1 4 3 -2 6 -13 5 -11 0 -14 -3 -6 -6z"/>
<path d="M3091 7978 c-14 -35 14 -56 103 -77 70 -17 77 -17 74 -2 -2 11 -21
19 -58 27 -52 10 -55 12 -55 40 -1 24 -5 30 -28 32 -21 3 -29 -2 -36 -20z"/>
<path d="M6883 7978 c-88 -71 -172 -113 -256 -129 -34 -7 -66 -16 -70 -20 -5
-4 34 -30 87 -58 98 -53 183 -115 222 -160 12 -14 25 -24 28 -20 12 12 -89
110 -163 157 -78 51 -107 82 -73 80 25 -2 161 66 206 102 49 39 73 38 116 -5
19 -19 38 -35 43 -35 4 0 5 -4 2 -10 -3 -5 3 -10 14 -10 11 0 40 -9 63 -19 24
-11 56 -23 71 -26 38 -8 28 -19 -51 -60 -70 -36 -111 -68 -130 -101 -6 -10
-12 -13 -12 -6 0 27 53 108 86 130 36 23 37 42 4 42 -12 0 -17 -5 -14 -13 2
-7 -9 -23 -26 -35 -40 -30 -75 -88 -83 -137 -6 -39 -6 -39 9 -15 14 23 14 23
9 3 -10 -35 17 -29 61 15 58 57 143 118 192 137 58 23 53 46 -13 61 -80 18
-161 59 -213 108 -27 25 -56 46 -65 46 -8 0 -28 -10 -44 -22z"/>
<path d="M10599 7961 c-26 -27 -38 -69 -23 -83 3 -3 29 2 57 12 29 10 69 21
90 25 20 4 40 11 43 16 7 12 -11 11 -76 -1 -58 -11 -63 -10 -55 12 10 24 52
40 67 25 7 -7 24 -11 37 -7 40 9 4 28 -57 29 -47 1 -58 -3 -83 -28z"/>
<path d="M4290 7960 c0 -11 188 -84 300 -115 85 -24 197 -34 186 -17 -3 5 16
14 42 21 77 20 33 32 -93 25 -98 -5 -116 -4 -167 16 -59 22 -75 40 -36 40 19
0 20 2 8 14 -17 15 -240 31 -240 16z"/>
<path d="M3225 7951 c-3 -5 -1 -12 5 -16 5 -3 10 1 10 9 0 18 -6 21 -15 7z"/>
<path d="M4625 7946 c-22 -7 -46 -11 -53 -8 -6 2 -12 0 -12 -6 0 -18 110 -34
194 -27 134 11 147 23 48 44 -67 14 -126 13 -177 -3z"/>
<path d="M11454 7929 c58 -46 7 -110 -99 -124 -63 -7 -91 -1 -122 28 -26 23
-30 12 -8 -20 20 -28 54 -33 139 -18 103 18 156 50 156 94 0 17 -53 61 -74 61
-16 0 -15 -3 8 -21z"/>
<path d="M6880 7908 c-23 -25 -20 -34 8 -19 24 13 62 15 62 4 1 -11 41 -39 68
-48 l24 -7 -21 21 c-12 12 -25 21 -29 21 -5 0 -19 11 -32 25 -29 31 -53 32
-80 3z"/>
<path d="M4255 7910 c11 -5 31 -9 44 -9 28 -1 91 -46 91 -65 0 -7 -9 -22 -20
-34 -29 -30 -25 -40 5 -12 37 35 32 65 -17 100 -30 22 -52 30 -82 29 -32 0
-37 -2 -21 -9z"/>
<path d="M9494 7911 c3 -5 -8 -14 -24 -20 -24 -8 -30 -16 -30 -40 0 -29 29
-71 49 -71 5 0 18 -3 28 -7 10 -3 0 10 -22 29 -35 32 -38 37 -26 52 20 24 65
46 114 56 40 7 38 8 -26 9 -38 1 -66 -3 -63 -8z"/>
<path d="M9687 7910 c33 -4 77 -14 96 -24 40 -18 77 -60 77 -85 0 -24 -64 -91
-86 -91 -13 0 -15 -3 -7 -11 14 -14 86 33 102 67 18 39 13 58 -21 91 -44 40
-107 63 -171 62 l-52 -2 62 -7z"/>
<path d="M8160 7905 c0 -3 8 -15 19 -26 16 -18 19 -18 31 -4 7 8 11 17 9 19
-8 7 -59 16 -59 11z"/>
<path d="M5635 7890 c-4 -6 5 -10 20 -10 15 0 24 4 20 10 -3 6 -12 10 -20 10
-8 0 -17 -4 -20 -10z"/>
<path d="M9027 7893 c-22 -3 -37 -9 -35 -15 13 -39 242 -57 303 -24 l30 16
-71 0 c-102 0 -198 11 -182 21 7 5 9 8 3 7 -5 -1 -27 -3 -48 -5z"/>
<path d="M387 7883 c-17 -16 -4 -36 36 -53 46 -20 213 -47 224 -37 11 12 -2
16 -69 22 -36 2 -76 9 -89 14 l-24 10 25 1 c25 2 25 2 -5 16 l-30 14 35 -4 35
-5 -40 14 c-44 15 -88 19 -98 8z"/>
<path d="M2763 7883 c-66 -8 -49 -69 26 -91 46 -14 227 -16 236 -3 7 13 -21
19 -77 17 -27 -1 -48 1 -48 6 0 4 -15 5 -32 3 l-33 -5 30 14 c32 15 30 17 -35
34 -19 5 -34 14 -32 21 1 6 1 10 0 9 -2 0 -17 -3 -35 -5z"/>
<path d="M13207 7844 c-69 -54 -69 -67 1 -59 84 10 187 34 207 49 25 18 12 46
-20 46 -23 0 -25 -2 -14 -22 6 -13 8 -20 4 -16 -4 4 -19 1 -34 -6 -14 -7 -48
-17 -74 -20 -46 -7 -48 -7 -38 13 14 24 25 32 65 42 30 7 30 7 -10 8 -32 1
-50 -6 -87 -35z"/>
<path d="M12840 7863 c-22 -8 -50 -35 -50 -47 0 -6 7 -3 14 6 7 10 28 24 47
32 32 14 22 21 -11 9z"/>
<path d="M5522 7838 c3 -7 18 -14 34 -16 28 -3 28 -3 9 12 -24 19 -48 21 -43
4z"/>
<path d="M6780 7840 c-18 -12 -2 -12 25 0 13 6 15 9 5 9 -8 0 -22 -4 -30 -9z"/>
<path d="M8283 7843 c-22 -8 -14 -23 12 -23 14 0 25 4 25 9 0 11 -21 19 -37
14z"/>
<path d="M7327 7809 c-10 -13 -22 -19 -31 -16 -9 4 -15 3 -14 -1 2 -4 -8 -29
-21 -55 -20 -41 -22 -58 -17 -104 3 -30 13 -67 21 -83 18 -35 104 -110 126
-110 9 0 28 -10 43 -21 19 -15 31 -18 38 -11 7 7 0 15 -22 27 -74 38 -124 93
-142 157 -19 69 -15 119 17 180 27 52 28 75 2 37z"/>
<path d="M6710 7811 c0 -5 20 -14 44 -20 27 -6 58 -25 82 -48 21 -21 31 -29
21 -17 -9 11 -17 24 -17 28 0 4 -9 21 -21 37 -17 25 -27 29 -65 29 -24 0 -44
-4 -44 -9z"/>
<path d="M5405 7800 c-9 -15 13 -40 35 -40 10 0 23 6 29 14 10 12 8 17 -8 25
-25 14 -48 14 -56 1z"/>
<path d="M8908 7803 c7 -3 16 -2 19 1 4 3 -2 6 -13 5 -11 0 -14 -3 -6 -6z"/>
<path d="M8377 7794 c-11 -11 3 -24 27 -24 12 0 27 -5 34 -12 7 -7 12 -8 12
-2 0 27 -56 55 -73 38z"/>
<path d="M6527 7748 c19 -110 9 -166 -37 -217 -24 -26 -28 -36 -19 -47 15 -18
49 -18 49 1 0 8 8 19 19 24 10 6 22 25 26 43 4 18 10 40 12 48 11 36 5 100
-13 135 -25 51 -45 58 -37 13z"/>
<path d="M5299 7749 c-12 -8 -11 -12 6 -24 21 -17 46 -16 52 1 5 16 -41 34
-58 23z"/>
<path d="M8481 7747 c-15 -19 -4 -27 36 -27 39 0 43 17 7 30 -32 12 -29 13
-43 -3z"/>
<path d="M2795 7733 c-83 -25 -137 -70 -132 -112 3 -36 28 -47 63 -29 51 26
229 120 231 122 1 1 -11 1 -27 0 -17 -1 -30 2 -30 6 0 20 -56 27 -105 13z"/>
<path d="M3048 7736 c-94 -16 -99 -30 -8 -22 102 9 140 17 140 27 0 11 -47 10
-132 -5z"/>
<path d="M10670 7740 c0 -5 15 -10 33 -10 74 0 322 -79 394 -126 23 -15 82
-19 84 -6 0 4 2 14 4 23 7 39 -121 97 -215 97 -36 0 -87 7 -115 16 -56 18
-185 22 -185 6z m347 -36 c-3 -3 -12 -4 -19 -1 -8 3 -5 6 6 6 11 1 17 -2 13
-5z"/>
<path d="M5174 7703 c-15 -15 -15 -18 2 -30 19 -14 74 -18 74 -5 0 13 -24 39
-42 45 -10 4 -25 -1 -34 -10z"/>
<path d="M8592 7703 c-10 -4 -10 -8 -1 -19 15 -18 53 -18 69 1 10 12 10 15 -1
15 -8 0 -23 2 -34 5 -11 2 -26 1 -33 -2z"/>
<path d="M3183 7689 c-18 -5 -37 -18 -42 -28 -22 -40 57 -69 128 -46 22 7 22
7 5 27 -13 14 -14 19 -4 16 7 -2 16 5 18 15 2 9 -2 17 -8 17 -6 0 -9 -4 -6 -8
2 -4 -5 -8 -17 -9 -12 0 -16 1 -9 4 17 6 5 23 -16 22 -9 0 -32 -5 -49 -10z"/>
<path d="M10440 7697 c0 -11 98 -66 146 -83 44 -15 56 -16 83 -5 36 15 38 22
14 43 -23 19 -73 32 -73 18 0 -5 10 -10 22 -10 21 0 21 -1 6 -17 -19 -18 -38
-12 -88 26 -23 18 -110 40 -110 28z"/>
<path d="M9238 7683 c7 -3 16 -2 19 1 4 3 -2 6 -13 5 -11 0 -14 -3 -6 -6z"/>
<path d="M3303 7658 c-2 -22 -5 -22 43 1 l39 19 -41 -1 c-30 -2 -40 -6 -41
-19z"/>
<path d="M5057 7668 c-18 -9 -18 -11 -1 -29 10 -11 30 -19 51 -19 37 0 41 6
16 27 -36 27 -48 31 -66 21z"/>
<path d="M8705 7660 c-17 -27 49 -48 73 -23 18 17 8 30 -12 14 -11 -9 -15 -8
-20 4 -6 17 -32 20 -41 5z"/>
<path d="M4931 7622 c-14 -25 4 -42 45 -42 31 0 63 24 50 37 -3 3 -6 1 -6 -5
0 -19 -29 -14 -42 8 -16 25 -34 26 -47 2z"/>
<path d="M8827 7633 c-18 -17 -5 -41 24 -47 50 -10 54 -7 31 14 -12 12 -22 25
-22 30 0 11 -23 13 -33 3z"/>
<path d="M8950 7600 c-35 -22 41 -67 88 -52 17 6 15 29 -2 35 -10 4 -13 1 -10
-8 4 -10 0 -12 -15 -8 -12 3 -21 14 -21 24 0 21 -16 24 -40 9z"/>
<path d="M4780 7580 c0 -23 28 -40 67 -40 35 1 80 24 64 34 -6 4 -11 2 -11 -3
0 -17 -18 -13 -40 9 -27 27 -80 27 -80 0z"/>
<path d="M4663 7573 c-7 -2 -13 -13 -13 -22 0 -10 -11 -23 -25 -29 -22 -10
-28 -9 -42 8 -21 24 -36 25 -54 4 -11 -14 -10 -18 6 -30 23 -17 54 -18 92 -3
15 7 47 11 70 10 38 -2 83 15 83 31 0 23 -84 45 -117 31z m77 -30 c0 -13 -3
-13 -15 -3 -8 7 -15 16 -15 21 0 5 7 6 15 3 8 -4 15 -13 15 -21z"/>
<path d="M9075 7564 c-18 -13 -18 -15 -3 -30 20 -21 97 -23 108 -3 7 10 14 7
34 -14 16 -17 35 -27 54 -27 31 0 71 24 59 36 -4 4 -7 2 -7 -4 0 -7 -14 -12
-31 -12 -27 0 -29 3 -24 22 7 21 6 21 -69 15 -43 -3 -74 -2 -71 3 11 18 -29
29 -50 14z"/>
<path d="M10226 7573 c-3 -3 -3 -10 0 -14 7 -12 34 -11 34 0 0 11 -26 22 -34
14z"/>
<path d="M3710 7530 c0 -5 7 -10 15 -10 8 0 15 5 15 10 0 6 -7 10 -15 10 -8 0
-15 -4 -15 -10z"/>
<path d="M10080 7530 c0 -5 6 -10 13 -10 6 0 23 -3 37 -7 22 -6 24 -5 11 10
-15 18 -61 23 -61 7z"/>
<path d="M4402 7522 c-7 -2 -12 -12 -12 -23 0 -15 7 -19 38 -19 20 0 44 5 52
10 13 8 12 10 -2 10 -10 0 -18 4 -18 9 0 10 -40 19 -58 13z"/>
<path d="M9358 7523 c-41 -10 3 -42 57 -42 37 0 39 1 20 14 -11 8 -25 19 -32
25 -13 10 -16 11 -45 3z"/>
<path d="M3846 7511 c-3 -5 0 -11 7 -13 17 -7 38 2 31 13 -7 12 -31 12 -38 0z"/>
<path d="M4251 7511 c-24 -15 6 -41 45 -41 40 0 43 12 9 34 -28 18 -35 19 -54
7z"/>
<path d="M6833 7500 c-43 -26 -42 -48 5 -91 91 -87 132 -103 102 -41 -10 20
-20 62 -22 92 -4 50 -7 55 -29 58 -13 1 -39 -7 -56 -18z"/>
<path d="M9490 7500 c0 -23 37 -36 75 -26 30 8 34 26 6 26 -11 0 -23 5 -26 10
-3 6 -17 10 -31 10 -17 0 -24 -5 -24 -20z"/>
<path d="M9937 7514 c-12 -12 4 -24 33 -24 16 0 31 4 34 9 10 16 -52 30 -67
15z"/>
<path d="M3977 7503 c-10 -10 13 -33 34 -33 26 0 33 17 10 29 -23 13 -35 14
-44 4z"/>
<path d="M4111 7497 c-15 -19 -4 -27 40 -27 49 0 58 15 17 29 -40 14 -43 14
-57 -2z"/>
<path d="M9656 7501 c-11 -17 3 -31 29 -31 21 0 43 16 33 25 -10 11 -57 15
-62 6z"/>
<path d="M9807 7504 c-15 -15 -6 -24 24 -24 20 0 29 4 27 13 -5 14 -40 21 -51
11z"/>
<path d="M6986 7485 c-3 -8 0 -29 6 -46 8 -24 8 -37 -1 -51 -8 -12 2 -8 31 12
61 45 65 56 26 80 -39 24 -54 25 -62 5z"/>
<path d="M6422 7453 c2 -10 14 -19 26 -21 19 -3 23 1 20 15 -2 10 -14 19 -26
21 -19 3 -23 -1 -20 -15z"/>
<path d="M6350 7420 c-10 -18 -8 -20 24 -20 38 0 57 17 35 31 -23 15 -48 10
-59 -11z"/>
<path d="M6295 7400 c-9 -15 3 -30 24 -30 27 0 33 11 13 26 -21 16 -29 17 -37
4z"/>
<path d="M7506 7391 c-6 -9 35 -24 43 -15 6 5 -18 24 -31 24 -4 0 -9 -4 -12
-9z"/>
<path d="M6230 7360 c0 -5 7 -10 15 -10 8 0 15 5 15 10 0 6 -7 10 -15 10 -8 0
-15 -4 -15 -10z"/>
<path d="M7590 7360 c0 -5 7 -10 15 -10 8 0 15 5 15 10 0 6 -7 10 -15 10 -8 0
-15 -4 -15 -10z"/>
<path d="M7766 7351 c-4 -5 -2 -12 3 -15 5 -4 12 -2 15 3 4 5 2 12 -3 15 -5 4
-12 2 -15 -3z"/>
<path d="M7678 7343 c7 -3 16 -2 19 1 4 3 -2 6 -13 5 -11 0 -14 -3 -6 -6z"/>
<path d="M2300 7280 c275 -12 3012 -11 3005 0 -4 7 -542 9 -1588 8 -870 -1
-1508 -5 -1417 -8z"/>
<path d="M8215 7279 c-22 -3 1192 -7 2697 -8 1892 -1 2739 2 2743 9 7 12
-5370 11 -5440 -1z"/>
<path d="M9696 7002 c-6 -9 -33 -195 -66 -447 -11 -88 -27 -207 -35 -265 -29
-203 -145 -1088 -145 -1104 0 -14 19 -16 155 -16 152 0 155 0 159 23 3 12 32
231 66 487 33 256 67 515 75 575 42 317 57 433 75 563 11 79 20 154 20 167 l0
25 -149 0 c-83 0 -152 -4 -155 -8z"/>
<path d="M5786 6868 c-2 -7 -9 -53 -16 -103 -24 -192 -34 -245 -44 -246 -6 -1
-27 0 -47 1 -19 1 -40 -5 -46 -12 -5 -7 -16 -56 -22 -108 -7 -52 -17 -119 -22
-149 -16 -97 -17 -95 47 -87 l56 6 -7 -52 c-3 -29 -13 -100 -22 -158 -8 -58
-19 -134 -23 -170 -4 -36 -14 -108 -20 -160 -35 -276 58 -471 224 -471 100 0
216 76 216 142 0 85 -25 269 -37 269 -6 0 -15 -5 -18 -10 -3 -6 -20 -17 -36
-25 -23 -12 -34 -13 -50 -4 -20 10 -21 16 -16 108 6 92 12 149 37 326 7 44 15
107 18 140 l7 60 86 3 87 3 6 32 c11 59 36 262 36 291 l0 29 -80 -5 c-45 -3
-83 -2 -85 2 -2 4 0 34 5 66 10 60 40 273 40 287 0 4 -61 7 -135 7 -100 0
-137 -3 -139 -12z"/>
<path d="M1931 6688 c-10 -24 -29 -159 -111 -793 -38 -290 -86 -646 -93 -689
-3 -19 59 -21 412 -16 l356 5 7 55 c3 30 13 104 22 164 9 60 16 111 16 113 0
2 -118 3 -261 3 l-262 0 8 43 c4 23 13 80 19 127 l11 85 235 5 235 5 22 155
c13 85 22 161 20 169 -2 11 -44 13 -229 12 -124 -1 -229 2 -231 6 -3 5 1 51 9
103 7 52 14 101 14 107 0 10 61 13 257 15 l257 3 17 95 c9 52 20 130 24 173
l7 77 -376 0 -376 0 -9 -22z"/>
<path d="M7114 6508 c3 -46 11 -191 16 -323 6 -132 15 -305 20 -385 5 -80 15
-254 21 -387 l12 -243 129 0 c95 0 128 3 128 12 0 7 9 35 20 63 11 27 71 193
134 367 63 175 119 325 124 334 6 11 11 -17 15 -88 7 -105 42 -500 55 -618 l7
-65 125 0 125 0 103 325 c56 179 139 440 183 580 45 140 99 310 120 377 21 67
39 125 39 128 0 3 -61 5 -135 5 -132 0 -136 -1 -144 -23 -5 -12 -55 -180 -111
-372 -56 -193 -106 -354 -110 -358 -4 -5 -10 45 -14 110 -4 65 -16 233 -27
373 -10 140 -19 259 -19 263 0 4 -59 6 -132 5 l-132 -3 -22 -60 c-23 -61 -57
-159 -159 -457 -32 -92 -60 -166 -64 -164 -3 2 -6 -9 -7 -26 -1 -16 -5 -33
-10 -38 -5 -5 -10 73 -10 188 -1 108 -5 279 -9 380 l-7 182 -135 0 -135 0 6
-82z"/>
<path d="M8793 6552 c-237 -85 -408 -476 -390 -894 6 -149 22 -219 71 -325 96
-203 292 -257 453 -124 20 17 41 27 46 24 6 -3 7 -1 3 5 -3 6 -1 14 5 17 7 5
8 -7 4 -39 l-7 -47 158 3 158 3 13 100 c8 55 31 233 53 395 22 162 55 417 75
565 20 149 37 277 38 285 2 13 -21 15 -153 15 l-155 0 -10 -75 c-6 -44 -14
-70 -18 -62 -5 6 -6 12 -3 12 5 0 -50 65 -82 96 -61 59 -169 78 -259 46z m213
-409 c14 -9 34 -34 46 -57 58 -114 13 -354 -88 -465 -47 -53 -82 -71 -135 -71
-35 0 -47 6 -74 35 -107 113 -44 439 104 539 61 41 105 47 147 19z"/>
<path d="M10373 6560 c-50 -11 -116 -55 -169 -110 -163 -170 -253 -464 -241
-789 9 -262 92 -440 235 -503 90 -40 217 -17 292 53 61 58 63 58 55 6 l-7 -47
156 0 c153 0 156 0 160 23 3 12 17 112 31 222 15 110 33 247 41 305 8 58 30
229 49 380 20 151 40 299 45 329 6 30 10 67 10 83 l0 28 -149 0 c-85 0 -152
-4 -156 -10 -3 -5 -8 -39 -12 -75 -3 -36 -9 -63 -12 -59 -3 3 -5 9 -5 12 1 4
-28 36 -65 72 -85 85 -152 106 -258 80z m205 -428 c32 -30 62 -111 62 -168 0
-49 -28 -184 -47 -229 -49 -114 -126 -185 -201 -185 -38 0 -50 5 -77 34 -45
48 -59 108 -51 211 10 138 65 261 142 320 70 54 127 59 172 17z"/>
<path d="M11447 6556 c-180 -65 -329 -311 -382 -634 -22 -128 -16 -374 10
-466 57 -202 173 -320 315 -319 65 1 114 19 180 68 26 19 51 31 55 27 5 -4 5
-2 1 5 -3 6 -1 15 5 19 9 5 10 -6 5 -40 l-7 -47 157 3 157 3 4 25 c1 14 41
313 88 664 47 351 85 647 85 658 0 17 -11 18 -149 18 -94 0 -152 -4 -156 -10
-4 -6 -10 -41 -13 -78 l-7 -67 -24 35 c-89 130 -205 178 -324 136z m201 -410
c15 -8 38 -34 52 -58 48 -84 28 -283 -42 -405 -85 -149 -223 -179 -284 -61 -8
16 -18 60 -21 97 -15 175 66 364 179 420 50 25 79 26 116 7z"/>
<path d="M4048 6537 c-51 -19 -122 -63 -165 -100 -129 -114 -227 -346 -254
-603 -25 -242 31 -463 148 -580 24 -23 68 -55 98 -70 51 -24 63 -26 149 -22
86 3 102 7 170 42 74 38 176 124 176 150 0 24 -131 276 -144 276 -7 0 -25 -14
-42 -31 -34 -37 -104 -74 -156 -83 -76 -14 -136 49 -145 153 l-6 59 159 4
c149 4 163 6 222 33 106 48 176 147 207 293 19 93 19 149 -1 226 -27 104 -83
181 -172 234 -37 21 -61 26 -126 29 -52 2 -94 -2 -118 -10z m149 -369 c44 -42
25 -121 -37 -153 -39 -20 -220 -21 -220 -2 0 42 85 147 133 167 42 17 99 11
124 -12z"/>
<path d="M5085 6529 c-22 -12 -61 -39 -87 -61 l-48 -39 0 45 0 46 -134 0 c-74
0 -137 -3 -139 -7 -3 -5 -12 -62 -21 -128 -9 -66 -25 -185 -36 -265 -11 -80
-27 -197 -36 -260 -9 -63 -20 -149 -24 -190 -5 -41 -14 -106 -20 -145 -5 -38
-15 -106 -20 -150 -5 -44 -14 -101 -19 -128 -5 -30 -5 -50 1 -53 12 -8 266 -9
273 -2 6 6 20 86 34 203 7 50 16 117 21 150 5 33 13 98 19 145 40 318 55 373
125 442 62 62 138 62 170 1 32 -62 30 -122 -8 -388 -8 -55 -19 -140 -26 -190
-12 -99 -24 -185 -40 -289 -6 -37 -9 -70 -7 -72 3 -4 220 -7 263 -5 6 1 14 25
17 54 4 28 16 120 27 202 38 273 60 438 77 582 15 131 15 148 0 222 -28 142
-98 252 -183 287 -50 21 -132 18 -179 -7z"/>
<path d="M6574 6541 c-53 -14 -134 -63 -175 -108 -50 -55 -105 -168 -120 -248
-6 -33 -9 -105 -7 -160 8 -165 49 -224 207 -297 142 -66 153 -72 169 -96 24
-37 -1 -101 -48 -125 -70 -36 -199 2 -279 82 -23 23 -43 41 -45 41 -2 0 -29
-51 -61 -112 -32 -62 -61 -117 -66 -123 -17 -18 -9 -36 38 -86 53 -57 135
-109 211 -134 80 -26 210 -18 282 18 150 72 240 242 240 449 0 110 -19 178
-69 245 -31 41 -55 57 -166 113 -153 76 -172 97 -141 154 20 39 68 66 114 66
38 0 117 -42 164 -87 32 -31 58 -37 58 -14 0 5 25 61 55 125 30 64 55 120 55
125 0 19 -115 111 -177 142 -51 25 -80 33 -136 35 -40 2 -86 0 -103 -5z"/>
<path d="M2738 6513 c-21 -5 -21 -6 -3 -109 8 -44 19 -116 24 -160 6 -43 16
-110 21 -149 6 -38 15 -101 20 -140 6 -38 19 -131 30 -205 11 -74 25 -169 31
-210 40 -283 49 -341 54 -349 2 -4 59 -6 127 -4 68 1 125 3 128 3 7 0 9 6 154
365 69 171 183 454 255 629 71 176 128 323 125 328 -9 14 -280 10 -292 -4 -5
-7 -39 -92 -75 -188 -36 -96 -96 -251 -133 -345 -36 -93 -71 -187 -77 -207 -6
-21 -14 -38 -18 -38 -3 0 -9 26 -12 58 -3 31 -17 147 -31 257 -14 110 -30 245
-37 300 -6 55 -15 116 -18 135 l-7 35 -124 1 c-69 1 -133 0 -142 -3z"/>
<path d="M7018 4597 c-15 -24 -41 -55 -58 -70 -16 -15 -30 -31 -30 -36 0 -5
18 -47 40 -93 27 -55 46 -115 57 -174 8 -49 19 -93 23 -97 4 -4 17 38 29 93
12 56 37 136 56 177 19 42 35 83 35 92 0 9 -18 34 -39 55 -22 22 -45 52 -52
67 -16 40 -29 36 -61 -14z"/>
<path d="M6533 4610 c-27 -16 -33 -26 -33 -55 0 -60 39 -91 158 -126 117 -33
186 -65 235 -109 19 -16 38 -30 42 -30 9 0 -51 105 -98 169 -111 150 -218 204
-304 151z"/>
<path d="M7401 4608 c-23 -13 -61 -42 -86 -66 -48 -47 -158 -203 -170 -241
l-7 -24 23 23 c63 59 167 110 293 145 90 25 144 96 107 143 -38 47 -95 54
-160 20z"/>
<path d="M6081 4554 c-34 -43 -24 -115 25 -186 37 -52 54 -51 42 5 -8 31 -6
57 6 102 14 53 14 62 0 82 -19 30 -48 29 -73 -3z"/>
<path d="M7984 4555 c-4 -9 -3 -28 1 -43 4 -15 10 -63 14 -107 l6 -80 33 52
c23 36 35 68 39 106 5 49 3 56 -18 71 -29 20 -68 21 -75 1z"/>
<path d="M6209 4511 c-21 -17 -24 -27 -24 -93 1 -59 6 -83 28 -125 24 -46 74
-99 84 -89 3 2 -3 19 -12 36 -18 36 -14 107 11 166 17 41 18 96 2 112 -18 18
-63 14 -89 -7z"/>
<path d="M5470 4501 c-24 -19 -24 -21 -10 -48 10 -17 31 -33 55 -41 66 -23
138 -55 167 -74 14 -10 29 -18 32 -18 3 0 -7 24 -22 52 -18 35 -46 67 -84 95
-70 53 -105 62 -138 34z"/>
<path d="M7846 4498 c-21 -30 -20 -60 5 -107 13 -26 20 -60 21 -100 0 -34 2
-61 3 -61 1 0 20 25 40 55 36 51 38 59 37 125 -1 39 -6 79 -12 90 -15 29 -74
27 -94 -2z"/>
<path d="M8545 4488 c-22 -18 -49 -44 -60 -57 -32 -40 -85 -124 -80 -129 2 -2
19 7 37 21 34 26 155 77 181 77 17 0 77 56 77 71 0 5 -9 18 -20 29 -32 32 -87
27 -135 -12z"/>
<path d="M8289 4460 c-25 -25 -29 -36 -29 -87 0 -77 -15 -127 -49 -166 -26
-29 -35 -32 -101 -35 -47 -3 -70 -1 -67 6 4 5 19 12 34 15 69 15 133 82 133
140 0 33 -40 77 -69 77 -26 0 -43 -18 -81 -86 -18 -30 -54 -72 -81 -94 -51
-40 -52 -50 -9 -50 14 0 30 -4 36 -10 5 -5 41 -12 79 -16 127 -11 226 42 280
150 28 57 32 104 10 145 -21 42 -52 46 -86 11z"/>
<path d="M5777 4462 c-34 -37 -14 -150 39 -220 16 -20 52 -46 88 -63 56 -27
70 -29 159 -28 54 1 95 4 92 7 -2 3 -35 4 -72 3 -130 -4 -203 65 -203 190 0
61 -13 108 -33 121 -21 13 -53 9 -70 -10z"/>
<path d="M6380 4456 c0 -21 27 -63 35 -54 1 2 0 20 -3 41 -5 42 -32 53 -32 13z"/>
<path d="M7741 4444 c0 -11 3 -14 6 -6 3 7 2 16 -1 19 -3 4 -6 -2 -5 -13z"/>
<path d="M6435 4413 c4 -21 15 -47 26 -59 31 -33 22 -40 -11 -9 -23 22 -33 26
-42 17 -19 -19 6 -57 55 -81 24 -12 78 -28 118 -36 41 -7 88 -19 104 -26 l30
-12 -33 -10 c-23 -7 -36 -7 -40 0 -4 6 -23 13 -42 15 -19 3 -49 11 -67 19 -35
14 -39 13 -45 -15 -2 -13 6 -25 24 -35 23 -13 34 -14 74 -3 50 14 76 4 49 -18
-20 -17 -19 -59 2 -67 11 -4 27 6 50 31 43 47 72 59 98 40 18 -13 17 -14 -12
-14 -36 0 -56 -20 -51 -52 4 -27 31 -35 64 -18 13 8 38 10 59 7 41 -7 38 6 -7
29 -38 20 -29 30 13 15 25 -9 34 -8 40 1 6 9 15 6 36 -12 15 -14 30 -26 31
-27 2 -1 10 -19 17 -40 7 -21 19 -38 27 -39 41 -3 41 -3 35 -56 -8 -61 -17
-73 -51 -64 -28 7 -34 30 -12 43 8 4 18 21 21 36 8 30 5 30 -67 10 -21 -5 -23
-25 -7 -51 9 -14 6 -27 -14 -62 -20 -37 -33 -48 -73 -62 -70 -24 -115 -22
-158 7 -20 13 -36 20 -36 15 0 -5 18 -22 40 -36 34 -23 48 -26 98 -22 75 5
137 36 137 69 0 34 32 38 41 5 3 -14 11 -26 16 -26 12 0 78 70 78 82 0 4 7 8
16 8 13 0 15 7 11 29 -5 22 2 41 25 77 17 27 46 72 64 100 18 28 49 63 69 78
19 15 45 37 58 49 12 12 33 28 47 35 133 67 133 82 2 31 -138 -52 -214 -117
-257 -219 -10 -25 -22 -49 -26 -53 -3 -5 -20 20 -36 55 -43 91 -97 142 -206
193 -163 76 -207 93 -207 77 0 -10 29 -25 104 -56 87 -36 -7 -23 -124 17 -58
20 -68 27 -99 75 -41 63 -67 70 -56 15z m162 -126 c18 -9 46 -17 63 -17 16 0
30 -4 30 -8 0 -5 -17 -6 -37 -2 -51 8 -163 43 -163 51 0 10 73 -6 107 -24z"/>
<path d="M7668 4404 c-19 -41 -30 -51 -82 -74 -34 -15 -78 -30 -100 -34 -21
-4 -36 -10 -33 -13 7 -6 119 18 132 29 5 4 17 8 27 8 27 0 96 75 96 105 0 38
-16 30 -40 -21z"/>
<path d="M5202 4414 c-14 -9 -22 -26 -22 -43 0 -44 18 -53 84 -40 91 17 214
-19 420 -123 45 -23 119 -55 166 -71 75 -27 98 -31 190 -31 135 0 242 12 237
27 -2 7 -23 9 -58 7 -30 -3 -110 -5 -179 -5 l-125 1 -95 43 c-52 23 -117 53
-145 64 -27 12 -57 29 -66 37 -38 33 -49 40 -49 34 0 -4 -10 2 -22 13 -53 48
-198 103 -273 103 -22 0 -51 -7 -63 -16z"/>
<path d="M8795 4419 c-61 -14 -105 -35 -290 -138 -248 -139 -261 -143 -435
-151 -80 -4 -138 -8 -130 -9 193 -28 313 -10 495 74 28 13 88 41 135 62 151
70 235 89 321 70 28 -6 39 -3 57 13 30 29 28 47 -10 70 -35 21 -77 24 -143 9z"/>
<path d="M5957 4392 c-56 -61 -10 -161 90 -196 45 -16 138 -24 149 -13 4 4 16
7 26 7 29 0 21 17 -11 23 -40 8 -95 59 -138 126 -20 31 -41 59 -47 63 -20 13
-52 8 -69 -10z"/>
<path d="M4260 4361 c-24 -5 2 -9 85 -13 258 -14 402 -63 725 -243 206 -115
361 -176 600 -236 110 -28 146 -33 296 -37 140 -3 182 -1 229 12 31 10 55 20
52 23 -3 3 -23 -1 -44 -8 -56 -20 -323 -17 -443 5 -196 35 -453 141 -730 301
-197 113 -293 153 -451 185 -96 20 -244 25 -319 11z"/>
<path d="M9585 4353 c-129 -18 -264 -70 -435 -166 -430 -244 -718 -339 -1037
-341 -157 -1 -173 -8 -43 -20 281 -24 680 93 1059 312 241 139 415 198 626
212 l110 7 -125 0 c-69 0 -138 -2 -155 -4z"/>
<path d="M7682 4324 c-39 -31 -133 -66 -184 -68 -21 0 -38 -5 -38 -10 0 -4 -9
-6 -20 -3 -10 3 -24 -1 -30 -8 -6 -7 -23 -15 -39 -18 -16 -4 -46 -20 -66 -38
-37 -33 -41 -48 -7 -30 10 5 29 7 41 4 19 -5 18 -7 -14 -24 -19 -11 -44 -28
-54 -38 -20 -20 -20 -20 4 -55 14 -20 28 -51 33 -69 10 -38 37 -48 45 -15 7
26 -27 85 -55 93 -9 3 -19 12 -22 20 -8 22 70 41 92 22 38 -31 77 16 42 48
-11 10 -23 14 -28 11 -6 -3 -12 1 -16 9 -4 11 1 15 17 15 25 0 63 -24 88 -54
19 -23 49 -16 49 12 0 22 -32 58 -60 67 -11 3 -20 10 -20 15 0 9 20 15 130 39
85 19 160 59 160 87 0 20 -10 17 -48 -12z"/>
<path d="M5190 4273 c-19 -10 -42 -32 -52 -49 -16 -27 -16 -32 -2 -52 21 -31
39 -28 129 19 108 56 101 57 494 -87 140 -51 297 -67 427 -43 32 6 68 18 78
27 18 16 19 16 11 -3 -38 -95 -40 -103 -28 -159 13 -63 33 -94 82 -127 69 -48
192 -26 275 47 25 22 28 29 18 45 -7 10 -12 40 -12 67 0 43 3 49 28 59 23 9
24 11 6 12 -11 1 -29 -7 -38 -18 -15 -16 -15 -27 -6 -82 l10 -64 -31 -27 c-39
-33 -115 -52 -170 -43 -42 7 -109 56 -109 80 0 7 -6 15 -12 18 -9 2 -13 27
-13 76 0 71 1 73 37 107 33 30 44 34 91 34 58 0 93 -18 107 -56 11 -29 -10
-116 -35 -144 -22 -24 -77 -27 -95 -5 -7 8 -9 15 -4 15 5 0 2 6 -7 13 -8 7
-18 21 -22 31 -4 10 -10 16 -13 13 -3 -3 -1 -14 4 -23 6 -11 7 -25 1 -35 -7
-13 0 -20 35 -33 92 -35 167 24 166 131 -1 49 -15 66 -80 99 l-54 27 -55 -19
c-30 -10 -67 -17 -82 -16 -15 2 -40 -5 -55 -15 -43 -28 -283 -25 -374 5 -159
52 -284 102 -300 122 -3 3 -34 19 -70 34 -86 38 -226 47 -280 19z"/>
<path d="M8695 4266 c-33 -13 -118 -51 -190 -85 -190 -91 -248 -105 -427 -106
-82 0 -148 -3 -148 -7 0 -11 150 -21 229 -14 104 10 169 27 361 99 150 55 172
61 245 61 74 1 84 -1 129 -31 58 -38 86 -41 112 -12 17 19 17 23 3 47 -8 15
-32 37 -54 49 -56 32 -176 31 -260 -1z"/>
<path d="M10198 4238 c54 -57 39 -128 -37 -168 -20 -11 -29 -19 -21 -20 23 0
77 36 96 65 34 52 12 115 -51 147 -13 7 -8 -2 13 -24z"/>
<path d="M4485 4220 c-24 -6 -16 -8 35 -9 139 -3 306 -68 415 -162 129 -112
259 -188 384 -225 61 -18 82 -12 24 6 -100 33 -213 102 -370 227 -124 99 -201
137 -317 158 -95 16 -124 17 -171 5z"/>
<path d="M7580 4215 c-48 -17 -50 -35 -3 -35 39 1 73 18 73 39 0 14 -24 12
-70 -4z"/>
<path d="M3911 4204 c0 -11 3 -14 6 -6 3 7 2 16 -1 19 -3 4 -6 -2 -5 -13z"/>
<path d="M9430 4204 c-82 -22 -151 -60 -248 -137 -147 -117 -155 -122 -222
-159 -115 -64 -188 -89 -299 -104 l-106 -13 95 3 c107 5 179 25 302 86 89 45
110 59 233 156 142 113 235 156 375 174 l55 7 -65 1 c-36 0 -90 -6 -120 -14z"/>
<path d="M6360 4181 c0 -5 5 -13 10 -16 6 -3 10 -2 10 4 0 5 -4 13 -10 16 -5
3 -10 2 -10 -4z"/>
<path d="M9880 4146 c0 -2 7 -9 15 -16 9 -7 15 -8 15 -2 0 5 -7 12 -15 16 -8
3 -15 4 -15 2z"/>
<path d="M4232 4128 c-7 -7 -12 -26 -11 -42 l1 -31 7 31 c4 17 11 36 15 42 9
15 3 15 -12 0z"/>
<path d="M7240 4115 c0 -8 2 -15 4 -15 2 0 6 7 10 15 3 8 1 15 -4 15 -6 0 -10
-7 -10 -15z"/>
<path d="M6431 4054 c0 -11 3 -14 6 -6 3 7 2 16 -1 19 -3 4 -6 -2 -5 -13z"/>
<path d="M6758 4038 c-20 -14 -28 -29 -28 -49 0 -33 -1 -33 34 -19 20 7 26 6
26 -4 0 -7 6 -19 14 -25 11 -10 17 -7 30 11 9 12 16 31 16 42 0 11 10 30 22
43 12 13 16 23 9 23 -21 0 -55 -21 -78 -49 -24 -30 -40 -24 -23 9 17 33 8 41
-22 18z"/>
<path d="M7370 4030 c0 -23 21 -60 35 -60 17 0 19 13 5 39 -10 20 -40 36 -40
21z"/>
<path d="M6345 4000 c-3 -6 1 -7 9 -4 18 7 21 14 7 14 -6 0 -13 -4 -16 -10z"/>
<path d="M6662 3960 c0 -19 2 -27 5 -17 2 9 2 25 0 35 -3 9 -5 1 -5 -18z"/>
<path d="M7117 3984 c-9 -9 24 -64 38 -64 24 1 47 29 40 49 -5 16 -15 21 -39
21 -18 0 -36 -3 -39 -6z"/>
<path d="M7147 3899 c-11 -6 -32 -9 -48 -7 -36 6 -36 -2 -2 -42 23 -28 31 -31
64 -26 29 5 49 0 90 -21 41 -22 67 -28 115 -28 39 0 68 5 76 13 11 11 7 12
-24 7 -44 -8 -137 17 -179 47 -25 19 -30 19 -46 7 -16 -12 -17 -12 -7 1 12 17
12 30 1 48 -10 15 -16 15 -40 1z"/>
<path d="M7683 3783 c9 -2 23 -2 30 0 6 3 -1 5 -18 5 -16 0 -22 -2 -12 -5z"/>
</g>
</svg>
